<!DOCTYPE svg PUBLIC "-//W3C//DTD SVG 1.1//EN" "http://www.w3.org/Graphics/SVG/1.1/DTD/svg11.dtd">
<!-- Uploaded to: SVG Repo, www.svgrepo.com, Transformed by: SVG Repo Mixer Tools -->
<svg fill="#ffffff" width="800px" height="800px" viewBox="-4.8 -4.8 33.60 33.60" role="img" xmlns="http://www.w3.org/2000/svg" stroke="#ffffff" stroke-width="0.12000000000000002" transform="matrix(1, 0, 0, 1, 0, 0)">
<g id="SVGRepo_bgCarrier" stroke-width="0" transform="translate(0,0), scale(1)">
<path transform="translate(-4.8, -4.8), scale(2.1)" fill="#2b2b2b" d="M9.166.33a2.25 2.25 0 00-2.332 0l-5.25 3.182A2.25 2.25 0 00.5 5.436v5.128a2.25 2.25 0 001.084 1.924l5.25 3.182a2.25 2.25 0 002.332 0l5.25-3.182a2.25 2.25 0 001.084-1.924V5.436a2.25 2.25 0 00-1.084-1.924L9.166.33z" strokewidth="0"/>
</g>
<g id="SVGRepo_tracerCarrier" stroke-linecap="round" stroke-linejoin="round" stroke="#CCCCCC" stroke-width="0.144"/>
<g id="SVGRepo_iconCarrier">
<title>Apache Kafka icon</title>
<path d="M16.262,13.293c-0.935,0-1.772,0.414-2.346,1.066l-1.47-1.041c0.156-0.43,0.246-0.891,0.246-1.374 c0-0.475-0.086-0.928-0.237-1.352l1.467-1.03c0.574,0.649,1.409,1.06,2.341,1.06c1.725,0,3.129-1.403,3.129-3.129 s-1.404-3.129-3.129-3.129s-3.129,1.403-3.129,3.129c0,0.309,0.047,0.607,0.13,0.889l-1.468,1.03 C11.183,8.653,10.3,8.121,9.294,7.959V6.19c1.417-0.298,2.485-1.557,2.485-3.061C11.779,1.403,10.375,0,8.65,0 S5.522,1.403,5.522,3.129c0,1.484,1.04,2.728,2.429,3.047v1.792c-1.895,0.333-3.341,1.987-3.341,3.976 c0,1.999,1.46,3.659,3.37,3.981v1.892c-1.403,0.308-2.457,1.56-2.457,3.054C5.522,22.597,6.925,24,8.65,24s3.129-1.403,3.129-3.129 c0-1.495-1.054-2.746-2.457-3.054v-1.892c0.966-0.163,1.84-0.671,2.46-1.431l1.48,1.048c-0.082,0.279-0.128,0.574-0.128,0.88 c0,1.725,1.404,3.129,3.129,3.129s3.129-1.403,3.129-3.129S17.987,13.293,16.262,13.293z M16.262,5.977 c0.837,0,1.517,0.681,1.517,1.517s-0.68,1.517-1.517,1.517c-0.836,0-1.517-0.681-1.517-1.517S15.426,5.977,16.262,5.977z M7.133,3.129c0-0.836,0.68-1.517,1.517-1.517s1.517,0.681,1.517,1.517S9.487,4.646,8.65,4.646S7.133,3.965,7.133,3.129z M10.167,20.871c0,0.836-0.68,1.517-1.517,1.517s-1.517-0.681-1.517-1.517s0.68-1.517,1.517-1.517S10.167,20.035,10.167,20.871z M8.65,14.06c-1.167,0-2.116-0.949-2.116-2.116c0-1.167,0.949-2.116,2.116-2.116c1.167,0,2.116,0.949,2.116,2.116 C10.766,13.111,9.817,14.06,8.65,14.06z M16.262,17.939c-0.837,0-1.517-0.681-1.517-1.517c0-0.836,0.68-1.517,1.517-1.517 s1.517,0.681,1.517,1.517C17.779,17.258,17.099,17.939,16.262,17.939z"/>
</g>
</svg>