<?xml version="1.0" standalone="no"?>
        <!DOCTYPE svg PUBLIC "-//W3C//DTD SVG 1.1//EN" 
        "http://www.w3.org/Graphics/SVG/1.1/DTD/svg11.dtd"> <svg style="color: white" xmlns="http://www.w3.org/2000/svg" xmlns:xlink="http://www.w3.org/1999/xlink" width="40" zoomAndPan="magnify" viewBox="0 0 30 30.000001" height="40" preserveAspectRatio="xMidYMid meet" version="1.0"><defs><clipPath id="id1"><path d="M 5.109375 3.386719 L 24.703125 3.386719 L 24.703125 25.886719 L 5.109375 25.886719 Z M 5.109375 3.386719 " clip-rule="nonzero" fill="white"></path></clipPath></defs><g clip-path="url(#id1)"><path fill="white" d="M 20.820312 18.550781 C 20.601562 18.550781 20.421875 18.695312 20.351562 18.898438 C 19.664062 20.878906 17.75 21.972656 15.285156 21.972656 C 11.691406 21.972656 9.519531 19.261719 9.519531 14.628906 C 9.519531 10.011719 11.691406 7.300781 15.269531 7.300781 C 17.792969 7.300781 19.75 8.609375 20.394531 10.84375 C 20.457031 11.058594 20.644531 11.214844 20.867188 11.214844 C 20.867188 11.214844 23.578125 11.214844 24.457031 11.214844 C 24.605469 11.214844 24.71875 11.082031 24.699219 10.9375 C 24.125 6.550781 20.183594 3.386719 15.269531 3.386719 C 9.003906 3.386719 5.109375 7.703125 5.109375 14.644531 C 5.109375 21.578125 9.007812 25.886719 15.285156 25.886719 C 20.214844 25.886719 23.992188 23.058594 24.699219 18.835938 C 24.722656 18.6875 24.605469 18.550781 24.457031 18.550781 Z M 20.820312 18.550781 " fill-opacity="1" fill-rule="nonzero"></path></g></svg> 