<!DOCTYPE svg PUBLIC "-//W3C//DTD SVG 1.1//EN" "http://www.w3.org/Graphics/SVG/1.1/DTD/svg11.dtd">
<!-- Uploaded to: SVG Repo, www.svgrepo.com, Transformed by: SVG Repo Mixer Tools -->
<svg width="800px" height="800px" viewBox="-6 -6 32.00 32.00" xmlns="http://www.w3.org/2000/svg" fill="#ffffff" stroke="#ffffff" stroke-width="0.0002">
<g id="SVGRepo_bgCarrier" stroke-width="0">
<path transform="translate(-6, -6), scale(2)" fill="#82c1d6" d="M9.166.33a2.25 2.25 0 00-2.332 0l-5.25 3.182A2.25 2.25 0 00.5 5.436v5.128a2.25 2.25 0 001.084 1.924l5.25 3.182a2.25 2.25 0 002.332 0l5.25-3.182a2.25 2.25 0 001.084-1.924V5.436a2.25 2.25 0 00-1.084-1.924L9.166.33z" strokewidth="0"/>
</g>
<g id="SVGRepo_tracerCarrier" stroke-linecap="round" stroke-linejoin="round"/>
<g id="SVGRepo_iconCarrier"> <rect x="0" fill="none" width="20" height="20"/> <g> <path d="M16 13c-1.3 0-2.4.8-2.8 2H9c0-.7-.2-1.3-.5-1.8l7.1-7.3c.3 0 .6.1.9.1C17.9 6 19 4.9 19 3.5S17.9 1 16.5 1 14 2.1 14 3.5c0 .3.1.7.2 1l-7 7.2c-.6-.5-1.4-.7-2.2-.7V6.8C6.2 6.4 7 5.3 7 4c0-1.7-1.3-3-3-3S1 2.3 1 4c0 1.3.8 2.4 2 2.8v4.7c-1.2.7-2 2-2 3.4 0 2.2 1.8 4 4 4 1.5 0 2.8-.8 3.4-2h4.7c.4 1.1 1.5 2 2.8 2 1.6 0 3-1.3 3-3C19 14.3 17.6 13 16 13z"/> </g> </g>
</svg>